<?xml version="1.0" encoding="UTF-8"?>
<svg xmlns="http://www.w3.org/2000/svg" viewBox="0 0 757 757">
  <defs>
    <style>
      .cls-1 {
        stroke-width: 12px;
      }

      .cls-1, .cls-2 {
        fill: none;
        stroke: #000;
        stroke-miterlimit: 10;
      }

      .cls-2 {
        stroke-width: 8px;
      }
    </style>
  </defs>
  <g id="Layer_3" data-name="Layer 3">
    <path class="cls-1" d="M216.5,251.5c38.62-2.08,66.55-11.61,85-20,14.87-6.76,25.32-13.57,77-47,41.91,26.33,63.15,39.63,77,46,18.67,8.58,47.32,18.78,87,22,0,0,0,.07,0,.08,2.41,27.66,2.99,67.92,2.99,67.92,0,0-1.15,44.62-12,80-12.62,41.16-32.3,69.42-41,81-20.47,27.26-41.6,44-58,57-5.35,4.24-9.97,7.66-56,40-45.52-31.37-52.17-35.93-62-44-14.39-11.8-33.79-27.93-53-54-24.05-32.65-34.25-62.52-37-71-11.02-34.03-12-76-12-76,0,0,.81-33.15,2-82Z"/>
  </g>
  <g id="Layer_9" data-name="Layer 9">
    <path class="cls-2" d="M447.35,445.01c-6.33-2.73-13.58-5.47-21.63-7.88-9.43-2.81-17.95-4.56-25.29-5.66,0,0-5.79-11.26-14.44-15.99-1.58-.86-6.92-3.51-11.9-2.13-7.56,2.1-8.73,11.91-9.01,14.36-1.57,13.28,7.43,24.44,6.01,25.18-1.98,1.03-22.42-18.74-34.19-47.33-8.08-19.62-9.97-36.36-11.27-49.65-1.48-15.04-1.02-27.3-.31-35.76,8.65-.2,20.73,0,35.3,1.87,15.58,1.99,31.29,4.16,49.49,11.95,28.42,12.16,47.91,32.86,46.86,34.83-.76,1.41-11.79-7.74-25.09-6.35-2.46.25-12.28,1.28-14.48,8.82-1.45,4.96,1.12,10.34,1.97,11.93,4.61,8.71,15.79,14.65,15.79,14.65,1.16,7.61,2.85,16.12,5.31,25.36,2.11,7.9,4.48,15.2,6.9,21.79Z"/>
  </g>
  <g id="Layer_10" data-name="Layer 10">
    <line class="cls-2" x1="314.66" y1="310.31" x2="291.61" y2="293.85"/>
    <line class="cls-2" x1="339.75" y1="311.14" x2="342.31" y2="283"/>
    <line class="cls-2" x1="311.45" y1="335.05" x2="283.13" y2="335.02"/>
  </g>
</svg>